<?xml version="1.0" encoding="UTF-8"?>
<svg id="Layer_2" data-name="Layer 2" xmlns="http://www.w3.org/2000/svg" viewBox="0 0 2924 799.5">
  <defs>
    <style>
      .cls-1 {
        fill: #fafaf8;
      }
    </style>
  </defs>
  <g id="Layer_1-2" data-name="Layer 1">
    <g>
      <path class="cls-1" d="M1020.47,309.84l1.57-271.63h-65.04V10.02h197.29v28.18h-97.56l-.7,271.63h-35.57Z"/>
      <path class="cls-1" d="M1141.29,64.22h-45.53l-2.55,245.62h36.39l.43-109.03h42.7l55.28,108.4h36.86l-123.58-244.99ZM1130.14,170.46l.21-52.73,26.9,52.73h-27.11Z"/>
      <path class="cls-1" d="M1442.65,118.43l13-28.19-127.4,23.47c2.43-2.43,4.65-4.93,6.67-7.52,8.19-10.5,12.86-21.72,14-33.68,1.14-11.95-1.56-24.17-8.1-36.64-6.63-12.63-15.23-21.95-25.8-27.97-10.57-6.01-22.48-8.59-35.73-7.74-13.25.87-27.38,5.23-42.4,13.11l-72.46,35.36,132.96,260.58h36.85l-78.18-152.36,8.65-4.54,177.94-33.88ZM1242.55,130.79l-35.45-67.81,42.36-22.23c13.88-7.28,25.89-9.82,36.02-7.59,10.13,2.22,17.99,8.68,23.6,19.36,5.61,10.69,6.47,20.88,2.59,30.55-3.88,9.68-12.77,18.16-26.66,25.45l-42.46,22.27Z"/>
      <path class="cls-1" d="M1357.35,309.42l-62.8-143.97,79.05-14.53c15.25-.8,28.94,1.74,41.07,7.61,12.12,5.87,21.76,14.52,28.91,25.96,7.15,11.44,11.13,24.98,11.95,40.63s-1.74,29.54-7.66,41.65c-5.92,12.12-14.61,21.72-26.05,28.82-11.45,7.1-24.8,11.04-40.05,11.84l-24.41,1.99ZM1379.62,282.04l-.78.88c10.76-.56,19.94-3.28,27.54-8.16,7.6-4.88,13.4-11.46,17.41-19.74,4-8.28,5.73-17.79,5.17-28.52-.57-11.03-3.28-20.38-8.12-28.05-4.84-7.67-11.29-13.54-19.36-17.6-8.07-4.06-17.48-5.81-28.24-5.25l-38.59,7.02,44.97,99.42Z"/>
      <polygon class="cls-1" points="1613.92 274.53 1613.92 309.21 1475.66 309.84 1468.66 107.58 1553.22 107.58 1553.22 137.94 1499.02 137.94 1500.33 189.96 1553.22 189.9 1553.38 220.32 1501.09 220.32 1502.48 275.67 1613.92 274.53"/>
      <path class="cls-1" d="M1576.55,253.47l.52-193.58-197.29,13.01v-32.52l294.86-19.51v32.52l-62.87,4.34.36,195.75h-35.57Z"/>
      <path class="cls-1" d="M1637.77,309.21l-.42-222.68h35.57v191.87l138.3.46v30.35h-173.44Z"/>
      <polygon class="cls-1" points="1737.06 65.93 1737.06 133.47 1807.85 133.47 1807.85 168.27 1737.06 168.27 1737.06 222.03 1806.88 222.49 1806.88 257.18 1701.49 257.81 1701.49 30.16 1902.27 29.53 1902.27 66.39 1737.06 65.93"/>
      <path class="cls-1" d="M1828.25,309.84V117.96h-63.47v-35.77l137.5,1.54v34.69l-38.46-.46v191.87h-35.56Z"/>
    </g>
    <path class="cls-1" d="M2924,352.34c0-175.35-142.15-317.5-317.5-317.5s-317.5,142.15-317.5,317.5c0,106.83,52.76,201.33,133.64,258.88v.1c0,103.93,84.25,188.18,188.18,188.18s188.18-84.25,188.18-188.18c0-2.14-.03-4.27-.11-6.39,76.04-58,125.11-149.57,125.11-252.59ZM2610.38,195.29v-88.42c26.13.41,51.27,4.89,74.8,12.85v75.57c0,10.63-8.7,19.34-19.34,19.34h-36.12c-10.64,0-19.34-8.71-19.34-19.34ZM2768.07,195.29c0,10.63-8.71,19.34-19.34,19.34h-36.13c-10.63,0-19.33-8.71-19.33-19.34v-72.67c27.66,10.45,52.94,25.75,74.8,44.87v27.8ZM2602.29,195.29c0,10.63-8.7,19.34-19.34,19.34h-36.12c-10.64,0-19.34-8.71-19.34-19.34v-75.46c23.53-7.99,48.67-12.52,74.8-12.95v88.41ZM2519.4,195.29c0,10.63-8.7,19.34-19.33,19.34h-36.13c-10.64,0-19.34-8.71-19.34-19.34v-27.51c21.85-19.18,47.13-34.54,74.8-45.04v72.55ZM2787,600.92c0,1.45-.03,2.9-.1,4.33.07,1.97.1,3.96.1,5.96,0,.8-.01,1.59-.01,2.38-1.28,95.54-79.15,172.62-174.99,172.62s-169.65-73.11-174.73-165.19c-.19-3.25-.28-6.52-.28-9.81,0-1.56.02-3.11.06-4.64.01-.44.02-.88.04-1.32-.07-1.43-.1-2.88-.1-4.33v-73.28c0-50.8,41.58-92.38,92.38-92.38h75.63v230.58c0,3.31,2.69,6,6,6s6-2.69,6-6v-230.58h77.61c47.95,0,87.69,37.04,92,83.91.26,2.79.39,5.62.39,8.47v73.28ZM2799,589.56v-64.69c41.04-45.76,66-106.23,66-172.53,0-26.61-4.02-52.29-11.49-76.45-2.05-6.65-4.37-13.18-6.94-19.58-16.7-41.73-43.97-78.09-78.5-105.78-22.22-17.81-47.45-32.02-74.8-41.77-2.67-.95-5.37-1.86-8.09-2.73-22.66-7.23-46.68-11.42-71.58-12.1-2.36-.06-4.72-.09-7.1-.09s-4.96.03-7.42.1c-24.91.71-48.93,4.93-71.59,12.2-2.72.87-5.42,1.78-8.09,2.74-27.36,9.79-52.59,24.06-74.8,41.92-31.47,25.32-56.89,57.86-73.75,95.11-2.22,4.91-4.29,9.91-6.21,14.99-10.76,28.43-16.64,59.25-16.64,91.44,0,70.83,28.49,135.02,74.64,181.71v62.29c-73.88-55.76-121.64-144.31-121.64-244,0-168.72,136.78-305.5,305.5-305.5s305.5,136.78,305.5,305.5c0,95.75-44.05,181.22-113,237.22Z"/>
    <g>
      <polygon class="cls-1" points="154.43 303.19 168.74 331.25 154.32 331.25 154.43 303.19"/>
      <path class="cls-1" d="M249.5,268.52c-2.98-5.69-7.17-9.12-12.55-10.3-5.39-1.19-11.78.16-19.16,4.04l-22.53,11.82,18.86,36.07,22.58-11.85c7.38-3.87,12.11-8.38,14.18-13.53,2.06-5.15,1.6-10.57-1.38-16.25ZM249.5,268.52c-2.98-5.69-7.17-9.12-12.55-10.3-5.39-1.19-11.78.16-19.16,4.04l-22.53,11.82,18.86,36.07,22.58-11.85c7.38-3.87,12.11-8.38,14.18-13.53,2.06-5.15,1.6-10.57-1.38-16.25ZM249.5,268.52c-2.98-5.69-7.17-9.12-12.55-10.3-5.39-1.19-11.78.16-19.16,4.04l-22.53,11.82,18.86,36.07,22.58-11.85c7.38-3.87,12.11-8.38,14.18-13.53,2.06-5.15,1.6-10.57-1.38-16.25ZM249.5,268.52c-2.98-5.69-7.17-9.12-12.55-10.3-5.39-1.19-11.78.16-19.16,4.04l-22.53,11.82,18.86,36.07,22.58-11.85c7.38-3.87,12.11-8.38,14.18-13.53,2.06-5.15,1.6-10.57-1.38-16.25ZM249.5,268.52c-2.98-5.69-7.17-9.12-12.55-10.3-5.39-1.19-11.78.16-19.16,4.04l-22.53,11.82,18.86,36.07,22.58-11.85c7.38-3.87,12.11-8.38,14.18-13.53,2.06-5.15,1.6-10.57-1.38-16.25ZM249.5,268.52c-2.98-5.69-7.17-9.12-12.55-10.3-5.39-1.19-11.78.16-19.16,4.04l-22.53,11.82,18.86,36.07,22.58-11.85c7.38-3.87,12.11-8.38,14.18-13.53,2.06-5.15,1.6-10.57-1.38-16.25ZM249.5,268.52c-2.98-5.69-7.17-9.12-12.55-10.3-5.39-1.19-11.78.16-19.16,4.04l-22.53,11.82,18.86,36.07,22.58-11.85c7.38-3.87,12.11-8.38,14.18-13.53,2.06-5.15,1.6-10.57-1.38-16.25ZM249.5,268.52c-2.98-5.69-7.17-9.12-12.55-10.3-5.39-1.19-11.78.16-19.16,4.04l-22.53,11.82,18.86,36.07,22.58-11.85c7.38-3.87,12.11-8.38,14.18-13.53,2.06-5.15,1.6-10.57-1.38-16.25ZM249.5,268.52c-2.98-5.69-7.17-9.12-12.55-10.3-5.39-1.19-11.78.16-19.16,4.04l-22.53,11.82,18.86,36.07,22.58-11.85c7.38-3.87,12.11-8.38,14.18-13.53,2.06-5.15,1.6-10.57-1.38-16.25ZM249.5,268.52c-2.98-5.69-7.17-9.12-12.55-10.3-5.39-1.19-11.78.16-19.16,4.04l-22.53,11.82,18.86,36.07,22.58-11.85c7.38-3.87,12.11-8.38,14.18-13.53,2.06-5.15,1.6-10.57-1.38-16.25ZM249.5,268.52c-2.98-5.69-7.17-9.12-12.55-10.3-5.39-1.19-11.78.16-19.16,4.04l-22.53,11.82,18.86,36.07,22.58-11.85c7.38-3.87,12.11-8.38,14.18-13.53,2.06-5.15,1.6-10.57-1.38-16.25ZM249.5,268.52c-2.98-5.69-7.17-9.12-12.55-10.3-5.39-1.19-11.78.16-19.16,4.04l-22.53,11.82,18.86,36.07,22.58-11.85c7.38-3.87,12.11-8.38,14.18-13.53,2.06-5.15,1.6-10.57-1.38-16.25ZM249.5,268.52c-2.98-5.69-7.17-9.12-12.55-10.3-5.39-1.19-11.78.16-19.16,4.04l-22.53,11.82,18.86,36.07,22.58-11.85c7.38-3.87,12.11-8.38,14.18-13.53,2.06-5.15,1.6-10.57-1.38-16.25ZM249.5,268.52c-2.98-5.69-7.17-9.12-12.55-10.3-5.39-1.19-11.78.16-19.16,4.04l-22.53,11.82,18.86,36.07,22.58-11.85c7.38-3.87,12.11-8.38,14.18-13.53,2.06-5.15,1.6-10.57-1.38-16.25ZM249.5,268.52c-2.98-5.69-7.17-9.12-12.55-10.3-5.39-1.19-11.78.16-19.16,4.04l-22.53,11.82,18.86,36.07,22.58-11.85c7.38-3.87,12.11-8.38,14.18-13.53,2.06-5.15,1.6-10.57-1.38-16.25Z"/>
      <path class="cls-1" d="M635,352.34c0-175.35-142.15-317.5-317.5-317.5S0,176.99,0,352.34c0,106.83,52.76,201.33,133.64,258.88v.1c0,103.93,84.25,188.18,188.18,188.18s188.18-84.25,188.18-188.18c0-2.14-.03-4.27-.11-6.39,76.04-58,125.11-149.57,125.11-252.59ZM89.6,260.9c2.03-5.09,4.24-10.08,6.61-14.99h70.96v14.99h-51.9l-.37,144.48h-18.91l.83-144.48h-7.22ZM443.93,251.68v17.3l-33.44,2.3.19,104.12h-18.91l.27-102.96-104.94,6.91v-17.29l156.83-10.38ZM321.38,195.29v-88.42c26.13.41,51.27,4.89,74.8,12.85v75.57c0,10.63-8.7,19.34-19.34,19.34h-36.12c-10.64,0-19.34-8.71-19.34-19.34ZM491.88,303.33v-19.03l61.77.69c1.73,6.07,3.23,12.24,4.49,18.5l-13.58-.16v102.05h-18.92v-102.05h-33.76ZM477.14,275.65v35.92h37.65v18.51h-37.65v28.6l37.14.24v18.46l-56.06.33v-121.09l85.31-.26c2.7,6.36,5.15,12.86,7.32,19.49l-73.71-.2ZM479.07,195.29c0,10.63-8.71,19.34-19.34,19.34h-36.13c-10.63,0-19.33-8.71-19.33-19.34v-72.67c27.66,10.45,52.94,25.75,74.8,44.87v27.8ZM351.23,341.63l28.13-.04.08,16.18h-27.81l.74,29.44,59.27-.61v18.45l-73.54.33-3.72-107.57h44.98v16.14h-28.83l.7,27.68ZM313.29,195.29c0,10.63-8.7,19.34-19.34,19.34h-36.12c-10.64,0-19.34-8.71-19.34-19.34v-75.46c23.53-7.99,48.67-12.52,74.8-12.95v88.41ZM252.66,244.78c5.62,3.21,10.2,8.16,13.72,14.88,3.48,6.64,4.92,13.13,4.31,19.49-.61,6.36-3.09,12.33-7.45,17.91-1.07,1.37-2.26,2.71-3.55,4l67.77-12.48-6.92,14.99-94.63,18.02-4.61,2.42,41.58,81.04h-19.6l-70.72-138.6,38.54-18.81c7.99-4.19,15.51-6.51,22.55-6.97,7.05-.46,13.39.91,19.01,4.11ZM323.32,382.48c-3.15,6.44-7.78,11.55-13.86,15.33-6.09,3.77-13.19,5.87-21.31,6.29l-12.98,1.06-33.4-76.58,42.05-7.73c8.11-.42,15.39.93,21.84,4.05,6.44,3.13,11.57,7.73,15.38,13.81,3.8,6.08,5.92,13.29,6.35,21.61.44,8.33-.92,15.71-4.07,22.16ZM230.4,195.29c0,10.63-8.7,19.34-19.33,19.34h-36.13c-10.64,0-19.34-8.71-19.34-19.34v-27.51c21.85-19.18,47.13-34.54,74.8-45.04v72.55ZM136.03,274.74h24.22l65.73,130.31h-19.6l-29.41-57.66h-22.71l-.23,57.99h-19.35l1.35-130.64ZM498,600.92c0,1.45-.03,2.9-.1,4.33.07,1.97.1,3.96.1,5.96,0,.8-.01,1.59-.01,2.38-1.28,95.54-79.15,172.62-174.99,172.62s-169.65-73.11-174.73-165.19c-.19-3.25-.28-6.52-.28-9.81,0-1.56.02-3.11.06-4.64.01-.44.02-.88.04-1.32-.07-1.43-.1-2.88-.1-4.33v-73.28c0-50.8,41.58-92.38,92.38-92.38h75.63v230.58c0,3.31,2.69,6,6,6s6-2.69,6-6v-230.58h77.61c47.95,0,87.69,37.04,92,83.91.26,2.79.39,5.62.39,8.47v73.28ZM424.33,405.05l-.22-118.44h18.91v102.05l73.56.25v16.14h-92.25ZM510,589.56v-64.69c41.04-45.76,66-106.23,66-172.53,0-26.61-4.02-52.29-11.49-76.45-2.05-6.65-4.37-13.18-6.94-19.58-16.7-41.73-43.97-78.09-78.5-105.78-22.22-17.81-47.45-32.02-74.8-41.77-2.67-.95-5.37-1.86-8.09-2.73-22.66-7.23-46.68-11.42-71.58-12.1-2.36-.06-4.72-.09-7.1-.09s-4.96.03-7.42.1c-24.91.71-48.93,4.93-71.59,12.2-2.72.87-5.42,1.78-8.09,2.74-27.36,9.79-52.59,24.06-74.8,41.92-31.47,25.32-56.89,57.86-73.75,95.11-2.22,4.91-4.29,9.91-6.21,14.99-10.76,28.43-16.64,59.25-16.64,91.44,0,70.83,28.49,135.02,74.64,181.71v62.29C59.76,540.58,12,452.03,12,352.34,12,183.62,148.78,46.84,317.5,46.84s305.5,136.78,305.5,305.5c0,95.75-44.05,181.22-113,237.22Z"/>
      <path class="cls-1" d="M310.51,376.23c-2.13,4.4-5.22,7.9-9.26,10.5-4.04,2.59-8.92,4.04-14.65,4.34l.42-.47-23.92-52.88,20.53-3.74c5.72-.3,10.73.64,15.02,2.8,4.29,2.16,7.72,5.28,10.3,9.36,2.57,4.08,4.01,9.05,4.31,14.92.3,5.71-.62,10.76-2.75,15.17Z"/>
    </g>
  </g>
</svg>