<?xml version="1.0" encoding="UTF-8"?>
<svg id="Layer_2" xmlns="http://www.w3.org/2000/svg" viewBox="0 0 635 764.66">
  <defs>
    <style>
      .cls-1 {
        fill: #fafaf8;
      }
    </style>
  </defs>
  <g id="Layer_1-2" data-name="Layer_1">
    <g>
      <polygon class="cls-1" points="154.43 268.35 168.74 296.41 154.32 296.41 154.43 268.35"/>
      <path class="cls-1" d="M249.5,233.68c-2.98-5.69-7.17-9.12-12.55-10.3-5.39-1.19-11.78.16-19.16,4.04l-22.53,11.82,18.86,36.07,22.58-11.85c7.38-3.87,12.11-8.38,14.18-13.53,2.06-5.15,1.6-10.57-1.38-16.25ZM249.5,233.68c-2.98-5.69-7.17-9.12-12.55-10.3-5.39-1.19-11.78.16-19.16,4.04l-22.53,11.82,18.86,36.07,22.58-11.85c7.38-3.87,12.11-8.38,14.18-13.53,2.06-5.15,1.6-10.57-1.38-16.25ZM249.5,233.68c-2.98-5.69-7.17-9.12-12.55-10.3-5.39-1.19-11.78.16-19.16,4.04l-22.53,11.82,18.86,36.07,22.58-11.85c7.38-3.87,12.11-8.38,14.18-13.53,2.06-5.15,1.6-10.57-1.38-16.25ZM249.5,233.68c-2.98-5.69-7.17-9.12-12.55-10.3-5.39-1.19-11.78.16-19.16,4.04l-22.53,11.82,18.86,36.07,22.58-11.85c7.38-3.87,12.11-8.38,14.18-13.53,2.06-5.15,1.6-10.57-1.38-16.25ZM249.5,233.68c-2.98-5.69-7.17-9.12-12.55-10.3-5.39-1.19-11.78.16-19.16,4.04l-22.53,11.82,18.86,36.07,22.58-11.85c7.38-3.87,12.11-8.38,14.18-13.53,2.06-5.15,1.6-10.57-1.38-16.25ZM249.5,233.68c-2.98-5.69-7.17-9.12-12.55-10.3-5.39-1.19-11.78.16-19.16,4.04l-22.53,11.82,18.86,36.07,22.58-11.85c7.38-3.87,12.11-8.38,14.18-13.53,2.06-5.15,1.6-10.57-1.38-16.25ZM249.5,233.68c-2.98-5.69-7.17-9.12-12.55-10.3-5.39-1.19-11.78.16-19.16,4.04l-22.53,11.82,18.86,36.07,22.58-11.85c7.38-3.87,12.11-8.38,14.18-13.53,2.06-5.15,1.6-10.57-1.38-16.25ZM249.5,233.68c-2.98-5.69-7.17-9.12-12.55-10.3-5.39-1.19-11.78.16-19.16,4.04l-22.53,11.82,18.86,36.07,22.58-11.85c7.38-3.87,12.11-8.38,14.18-13.53,2.06-5.15,1.6-10.57-1.38-16.25ZM249.5,233.68c-2.98-5.69-7.17-9.12-12.55-10.3-5.39-1.19-11.78.16-19.16,4.04l-22.53,11.82,18.86,36.07,22.58-11.85c7.38-3.87,12.11-8.38,14.18-13.53,2.06-5.15,1.6-10.57-1.38-16.25ZM249.5,233.68c-2.98-5.69-7.17-9.12-12.55-10.3-5.39-1.19-11.78.16-19.16,4.04l-22.53,11.82,18.86,36.07,22.58-11.85c7.38-3.87,12.11-8.38,14.18-13.53,2.06-5.15,1.6-10.57-1.38-16.25ZM249.5,233.68c-2.98-5.69-7.17-9.12-12.55-10.3-5.39-1.19-11.78.16-19.16,4.04l-22.53,11.82,18.86,36.07,22.58-11.85c7.38-3.87,12.11-8.38,14.18-13.53,2.06-5.15,1.6-10.57-1.38-16.25ZM249.5,233.68c-2.98-5.69-7.17-9.12-12.55-10.3-5.39-1.19-11.78.16-19.16,4.04l-22.53,11.82,18.86,36.07,22.58-11.85c7.38-3.87,12.11-8.38,14.18-13.53,2.06-5.15,1.6-10.57-1.38-16.25ZM249.5,233.68c-2.98-5.69-7.17-9.12-12.55-10.3-5.39-1.19-11.78.16-19.16,4.04l-22.53,11.82,18.86,36.07,22.58-11.85c7.38-3.87,12.11-8.38,14.18-13.53,2.06-5.15,1.6-10.57-1.38-16.25ZM249.5,233.68c-2.98-5.69-7.17-9.12-12.55-10.3-5.39-1.19-11.78.16-19.16,4.04l-22.53,11.82,18.86,36.07,22.58-11.85c7.38-3.87,12.11-8.38,14.18-13.53,2.06-5.15,1.6-10.57-1.38-16.25ZM249.5,233.68c-2.98-5.69-7.17-9.12-12.55-10.3-5.39-1.19-11.78.16-19.16,4.04l-22.53,11.82,18.86,36.07,22.58-11.85c7.38-3.87,12.11-8.38,14.18-13.53,2.06-5.15,1.6-10.57-1.38-16.25Z"/>
      <path class="cls-1" d="M635,317.5C635,142.15,492.85,0,317.5,0S0,142.15,0,317.5c0,106.83,52.76,201.33,133.64,258.88v.1c0,103.93,84.25,188.18,188.18,188.18s188.18-84.25,188.18-188.18c0-2.14-.03-4.27-.11-6.39,76.04-58,125.11-149.57,125.11-252.59ZM89.6,226.06c2.03-5.09,4.24-10.08,6.61-14.99h70.96v14.99h-51.9l-.37,144.48h-18.91l.83-144.48h-7.22ZM443.93,216.84v17.3l-33.44,2.3.19,104.12h-18.91l.27-102.96-104.94,6.91v-17.29l156.83-10.38ZM321.38,160.45v-88.42c26.13.41,51.27,4.89,74.8,12.85v75.57c0,10.63-8.7,19.34-19.34,19.34h-36.12c-10.64,0-19.34-8.71-19.34-19.34ZM491.88,268.49v-19.03l61.77.69c1.73,6.07,3.23,12.24,4.49,18.5l-13.58-.16v102.05h-18.92v-102.05h-33.76ZM477.14,240.81v35.92h37.65v18.51h-37.65v28.6l37.14.24v18.46l-56.06.33v-121.09l85.31-.26c2.7,6.36,5.15,12.86,7.32,19.49l-73.71-.2ZM479.07,160.45c0,10.63-8.71,19.34-19.34,19.34h-36.13c-10.63,0-19.33-8.71-19.33-19.34v-72.67c27.66,10.45,52.94,25.75,74.8,44.87v27.8ZM351.23,306.79l28.13-.04.08,16.18h-27.81l.74,29.44,59.27-.61v18.45l-73.54.33-3.72-107.57h44.98v16.14h-28.83l.7,27.68ZM313.29,160.45c0,10.63-8.7,19.34-19.34,19.34h-36.12c-10.64,0-19.34-8.71-19.34-19.34v-75.46c23.53-7.99,48.67-12.52,74.8-12.95v88.41ZM252.66,209.94c5.62,3.21,10.2,8.16,13.72,14.88,3.48,6.64,4.92,13.13,4.31,19.49-.61,6.36-3.09,12.33-7.45,17.91-1.07,1.37-2.26,2.71-3.55,4l67.77-12.48-6.92,14.99-94.63,18.02-4.61,2.42,41.58,81.04h-19.6l-70.72-138.6,38.54-18.81c7.99-4.19,15.51-6.51,22.55-6.97,7.05-.46,13.39.91,19.01,4.11ZM323.32,347.64c-3.15,6.44-7.78,11.55-13.86,15.33-6.09,3.77-13.19,5.87-21.31,6.29l-12.98,1.06-33.4-76.58,42.05-7.73c8.11-.42,15.39.93,21.84,4.05,6.44,3.13,11.57,7.73,15.38,13.81,3.8,6.08,5.92,13.29,6.35,21.61.44,8.33-.92,15.71-4.07,22.16ZM230.4,160.45c0,10.63-8.7,19.34-19.33,19.34h-36.13c-10.64,0-19.34-8.71-19.34-19.34v-27.51c21.85-19.18,47.13-34.54,74.8-45.04v72.55ZM136.03,239.9h24.22l65.73,130.31h-19.6l-29.41-57.66h-22.71l-.23,57.99h-19.35l1.35-130.64ZM498,566.08c0,1.45-.03,2.9-.1,4.33.07,1.97.1,3.96.1,5.96,0,.8-.01,1.59-.01,2.38-1.28,95.54-79.15,172.62-174.99,172.62s-169.65-73.11-174.73-165.19c-.19-3.25-.28-6.52-.28-9.81,0-1.56.02-3.11.06-4.64.01-.44.02-.88.04-1.32-.07-1.43-.1-2.88-.1-4.33v-73.28c0-50.8,41.58-92.38,92.38-92.38h75.63v230.58c0,3.31,2.69,6,6,6s6-2.69,6-6v-230.58h77.61c47.95,0,87.69,37.04,92,83.91.26,2.79.39,5.62.39,8.47v73.28ZM424.33,370.21l-.22-118.44h18.91v102.05l73.56.25v16.14h-92.25ZM510,554.72v-64.69c41.04-45.76,66-106.23,66-172.53,0-26.61-4.02-52.29-11.49-76.45-2.05-6.65-4.37-13.18-6.94-19.58-16.7-41.73-43.97-78.09-78.5-105.78-22.22-17.81-47.45-32.02-74.8-41.77-2.67-.95-5.37-1.86-8.09-2.73-22.66-7.23-46.68-11.42-71.58-12.1-2.36-.06-4.72-.09-7.1-.09s-4.96.03-7.42.1c-24.91.71-48.93,4.93-71.59,12.2-2.72.87-5.42,1.78-8.09,2.74-27.36,9.79-52.59,24.06-74.8,41.92-31.47,25.32-56.89,57.86-73.75,95.11-2.22,4.91-4.29,9.91-6.21,14.99-10.76,28.43-16.64,59.25-16.64,91.44,0,70.83,28.49,135.02,74.64,181.71v62.29C59.76,505.74,12,417.19,12,317.5,12,148.78,148.78,12,317.5,12s305.5,136.78,305.5,305.5c0,95.75-44.05,181.22-113,237.22Z"/>
      <path class="cls-1" d="M310.51,341.39c-2.13,4.4-5.22,7.9-9.26,10.5-4.04,2.59-8.92,4.04-14.65,4.34l.42-.47-23.92-52.88,20.53-3.74c5.72-.3,10.73.64,15.02,2.8,4.29,2.16,7.72,5.28,10.3,9.36,2.57,4.08,4.01,9.05,4.31,14.92.3,5.71-.62,10.76-2.75,15.17Z"/>
    </g>
  </g>
</svg>