<?xml version="1.0" encoding="UTF-8"?>
<svg id="Layer_2" data-name="Layer 2" xmlns="http://www.w3.org/2000/svg" viewBox="0 0 945.27 309.84">
  <defs>
    <style>
      .cls-1 {
        fill: #ff66c4;
      }
    </style>
  </defs>
  <g id="Layer_1-2" data-name="Layer 1">
    <g>
      <path class="cls-1" d="M63.47,309.84l1.57-271.63H0V10.02h197.29v28.18h-97.56l-.7,271.63h-35.57Z"/>
      <path class="cls-1" d="M184.29,64.22h-45.53l-2.55,245.62h36.39l.43-109.03h42.7l55.28,108.4h36.86l-123.58-244.99ZM173.14,170.46l.21-52.73,26.9,52.73h-27.11Z"/>
      <path class="cls-1" d="M485.65,118.43l13-28.19-127.4,23.47c2.43-2.43,4.65-4.93,6.67-7.52,8.19-10.5,12.86-21.72,14-33.68,1.14-11.95-1.56-24.17-8.1-36.64-6.63-12.63-15.23-21.95-25.8-27.97-10.57-6.01-22.48-8.59-35.73-7.74-13.25.87-27.38,5.23-42.4,13.11l-72.46,35.36,132.96,260.58h36.85l-78.18-152.36,8.65-4.54,177.94-33.88ZM285.55,130.79l-35.45-67.81,42.36-22.23c13.88-7.28,25.89-9.82,36.02-7.59,10.13,2.22,17.99,8.68,23.6,19.36,5.61,10.69,6.47,20.88,2.59,30.55-3.88,9.68-12.77,18.16-26.66,25.45l-42.46,22.27Z"/>
      <path class="cls-1" d="M400.35,309.42l-62.8-143.97,79.05-14.53c15.25-.8,28.94,1.74,41.07,7.61,12.12,5.87,21.76,14.52,28.91,25.96,7.15,11.44,11.13,24.98,11.95,40.63s-1.74,29.54-7.66,41.65c-5.92,12.12-14.61,21.72-26.05,28.82-11.45,7.1-24.8,11.04-40.05,11.84l-24.41,1.99ZM422.62,282.04l-.78.88c10.76-.56,19.94-3.28,27.54-8.16,7.6-4.88,13.4-11.46,17.41-19.74,4-8.28,5.73-17.79,5.17-28.52-.57-11.03-3.28-20.38-8.12-28.05-4.84-7.67-11.29-13.54-19.36-17.6-8.07-4.06-17.48-5.81-28.24-5.25l-38.59,7.02,44.97,99.42Z"/>
      <polygon class="cls-1" points="656.92 274.53 656.92 309.21 518.66 309.84 511.66 107.58 596.22 107.58 596.22 137.94 542.02 137.94 543.33 189.96 596.22 189.9 596.38 220.32 544.09 220.32 545.48 275.67 656.92 274.53"/>
      <path class="cls-1" d="M619.55,253.47l.52-193.58-197.29,13.01v-32.52l294.86-19.51v32.52l-62.87,4.34.36,195.75h-35.57Z"/>
      <path class="cls-1" d="M680.77,309.21l-.42-222.68h35.57v191.87l138.3.46v30.35h-173.44Z"/>
      <polygon class="cls-1" points="780.06 65.93 780.06 133.47 850.85 133.47 850.85 168.27 780.06 168.27 780.06 222.03 849.88 222.49 849.88 257.18 744.49 257.81 744.49 30.16 945.27 29.53 945.27 66.39 780.06 65.93"/>
      <path class="cls-1" d="M871.25,309.84V117.96h-63.47v-35.77l137.5,1.54v34.69l-38.46-.46v191.87h-35.56Z"/>
    </g>
  </g>
</svg>