<?xml version="1.0" encoding="UTF-8"?>
<svg id="Layer_2" data-name="Layer 2" xmlns="http://www.w3.org/2000/svg" viewBox="0 0 635 764.66">
  <defs>
    <style>
      .cls-1 {
        fill: #ff66c4;
      }

      .cls-2 {
        fill: #b9e4eb;
      }

      .cls-3 {
        fill: #fafaf8;
      }

      .cls-4 {
        fill: #abd43e;
      }

      .cls-5 {
        fill: blue;
      }

      .cls-6 {
        fill: #3fa9f5;
      }

      .cls-7 {
        fill: #154932;
      }

      .cls-8 {
        fill: #008071;
      }
    </style>
  </defs>
  <g id="Layer_1-2" data-name="Layer 1">
    <g>
      <path class="cls-6" d="M563,317.5c0,58.26-20.29,111.77-54.18,153.87-7.4-47.46-48.72-84.08-98.16-84.08h-177.68c-52.55,0-95.92,41.37-99.14,93.14-38.47-43.34-61.84-100.4-61.84-162.93,0-32.32,6.25-63.18,17.6-91.44,2.03-5.09,4.24-10.08,6.61-14.99,14.41-29.91,34.71-56.46,59.39-78.13,21.85-19.18,47.13-34.54,74.8-45.04,2.68-1.02,5.37-1.99,8.09-2.91,23.53-7.99,48.67-12.52,74.8-12.95,1.4-.03,2.8-.04,4.21-.04,1.3,0,2.59.01,3.88.03,26.13.41,51.27,4.89,74.8,12.85,2.72.92,5.41,1.88,8.09,2.9,27.66,10.45,52.94,25.75,74.8,44.87,27.67,24.21,49.86,54.54,64.46,88.87,2.7,6.36,5.15,12.86,7.32,19.49.99,3.02,1.92,6.07,2.8,9.14,1.73,6.07,3.23,12.24,4.49,18.5,3.19,15.79,4.86,32.12,4.86,48.85Z"/>
      <path class="cls-8" d="M635,317.5c0,103.02-49.07,194.59-125.11,252.59h0c.08-1.55.11-3.1.11-4.67v-10.7c68.95-56,113-141.47,113-237.22,0-168.72-136.78-305.5-305.5-305.5S12,148.78,12,317.5c0,99.69,47.76,188.24,121.64,244v3.92c0,1.57.03,3.12.1,4.66-.07,2.09-.1,4.19-.1,6.3C52.76,518.83,0,424.33,0,317.5,0,142.15,142.15,0,317.5,0s317.5,142.15,317.5,317.5Z"/>
      <path class="cls-5" d="M563,317.5c0,58.26-20.29,111.77-54.18,153.87-7.4-47.46-48.72-84.08-98.16-84.08h-177.68c-52.55,0-95.92,41.37-99.14,93.14-38.47-43.34-61.84-100.4-61.84-162.93,0-32.32,6.25-63.18,17.6-91.44,2.03-5.09,4.24-10.08,6.61-14.99,14.41-29.91,34.71-56.46,59.39-78.13,21.85-19.18,47.13-34.54,74.8-45.04,2.68-1.02,5.37-1.99,8.09-2.91,23.53-7.99,48.67-12.52,74.8-12.95,1.4-.03,2.8-.04,4.21-.04,1.3,0,2.59.01,3.88.03,26.13.41,51.27,4.89,74.8,12.85,2.72.92,5.41,1.88,8.09,2.9,27.66,10.45,52.94,25.75,74.8,44.87,27.67,24.21,49.86,54.54,64.46,88.87,2.7,6.36,5.15,12.86,7.32,19.49.99,3.02,1.92,6.07,2.8,9.14,1.73,6.07,3.23,12.24,4.49,18.5,3.19,15.79,4.86,32.12,4.86,48.85Z"/>
      <path class="cls-2" d="M623,317.5c0,95.75-44.05,181.22-113,237.22v-64.69c41.04-45.76,66-106.23,66-172.53,0-26.61-4.02-52.29-11.49-76.45-2.05-6.65-4.37-13.18-6.94-19.58-16.7-41.73-43.97-78.09-78.5-105.78-22.22-17.81-47.45-32.02-74.8-41.77-2.67-.95-5.37-1.86-8.09-2.73-22.66-7.23-46.68-11.42-71.58-12.1-2.36-.06-4.72-.09-7.1-.09s-4.96.03-7.42.1c-24.91.71-48.93,4.93-71.59,12.2-2.72.87-5.42,1.78-8.09,2.74-27.36,9.79-52.59,24.06-74.8,41.92-31.47,25.32-56.89,57.86-73.75,95.11-2.22,4.91-4.29,9.91-6.21,14.99-10.76,28.43-16.64,59.25-16.64,91.44,0,70.83,28.49,135.02,74.64,181.71v62.29C59.76,505.74,12,417.19,12,317.5,12,148.78,148.78,12,317.5,12s305.5,136.78,305.5,305.5Z"/>
      <path class="cls-8" d="M510,490.03v-3.4c0-5.19-.4-10.28-1.18-15.26,33.89-42.1,54.18-95.61,54.18-153.87,0-16.73-1.67-33.06-4.86-48.85-1.26-6.26-2.76-12.43-4.49-18.5-.88-3.07-1.81-6.12-2.8-9.14-2.17-6.63-4.62-13.13-7.32-19.49-14.6-34.33-36.79-64.66-64.46-88.87-21.86-19.12-47.14-34.42-74.8-44.87-2.68-1.02-5.37-1.98-8.09-2.9-23.53-7.96-48.67-12.44-74.8-12.85-1.29-.02-2.58-.03-3.88-.03-1.41,0-2.81.01-4.21.04-26.13.43-51.27,4.96-74.8,12.95-2.72.92-5.41,1.89-8.09,2.91-27.67,10.5-52.95,25.86-74.8,45.04-24.68,21.67-44.98,48.22-59.39,78.13-2.37,4.91-4.58,9.9-6.61,14.99-11.35,28.26-17.6,59.12-17.6,91.44,0,62.53,23.37,119.59,61.84,162.93-.13,2.05-.2,4.12-.2,6.2v12.58c-46.15-46.69-74.64-110.88-74.64-181.71,0-32.19,5.88-63.01,16.64-91.44,1.92-5.08,3.99-10.08,6.21-14.99,16.86-37.25,42.28-69.79,73.75-95.11,22.21-17.86,47.44-32.13,74.8-41.92,2.67-.96,5.37-1.87,8.09-2.74,22.66-7.27,46.68-11.49,71.59-12.2,2.46-.07,4.94-.1,7.42-.1s4.74.03,7.1.09c24.9.68,48.92,4.87,71.58,12.1,2.72.87,5.42,1.78,8.09,2.73,27.35,9.75,52.58,23.96,74.8,41.77,34.53,27.69,61.8,64.05,78.5,105.78,2.57,6.4,4.89,12.93,6.94,19.58,7.47,24.16,11.49,49.84,11.49,76.45,0,66.3-24.96,126.77-66,172.53Z"/>
      <path class="cls-6" d="M563,317.5c0,58.26-20.29,111.77-54.18,153.87-7.4-47.46-48.72-84.08-98.16-84.08h-177.68c-52.55,0-95.92,41.37-99.14,93.14-38.47-43.34-61.84-100.4-61.84-162.93,0-32.32,6.25-63.18,17.6-91.44,2.03-5.09,4.24-10.08,6.61-14.99,14.41-29.91,34.71-56.46,59.39-78.13,21.85-19.18,47.13-34.54,74.8-45.04,2.68-1.02,5.37-1.99,8.09-2.91,23.53-7.99,48.67-12.52,74.8-12.95,1.4-.03,2.8-.04,4.21-.04,1.3,0,2.59.01,3.88.03,26.13.41,51.27,4.89,74.8,12.85,2.72.92,5.41,1.88,8.09,2.9,27.66,10.45,52.94,25.75,74.8,44.87,27.67,24.21,49.86,54.54,64.46,88.87,2.7,6.36,5.15,12.86,7.32,19.49.99,3.02,1.92,6.07,2.8,9.14,1.73,6.07,3.23,12.24,4.49,18.5,3.19,15.79,4.86,32.12,4.86,48.85Z"/>
      <path class="cls-7" d="M563,317.5c0,58.26-20.29,111.77-54.18,153.87-7.4-47.46-48.72-84.08-98.16-84.08h-177.68c-52.55,0-95.92,41.37-99.14,93.14-38.47-43.34-61.84-100.4-61.84-162.93,0-32.32,6.25-63.18,17.6-91.44,2.03-5.09,4.24-10.08,6.61-14.99,14.41-29.91,34.71-56.46,59.39-78.13,21.85-19.18,47.13-34.54,74.8-45.04,2.68-1.02,5.37-1.99,8.09-2.91,23.53-7.99,48.67-12.52,74.8-12.95,1.4-.03,2.8-.04,4.21-.04,1.3,0,2.59.01,3.88.03,26.13.41,51.27,4.89,74.8,12.85,2.72.92,5.41,1.88,8.09,2.9,27.66,10.45,52.94,25.75,74.8,44.87,27.67,24.21,49.86,54.54,64.46,88.87,2.7,6.36,5.15,12.86,7.32,19.49.99,3.02,1.92,6.07,2.8,9.14,1.73,6.07,3.23,12.24,4.49,18.5,3.19,15.79,4.86,32.12,4.86,48.85Z"/>
      <g>
        <path class="cls-4" d="M96.21,211.07c-2.37,4.91-4.58,9.9-6.61,14.99h7.22l-.83,144.48h18.91l.37-144.48h51.9v-14.99h-70.96Z"/>
        <path class="cls-4" d="M160.25,239.9h-24.22l-1.35,130.64h19.35l.23-57.99h22.71l29.41,57.66h19.6l-65.73-130.31ZM154.32,296.41l.11-28.06,14.31,28.06h-14.42Z"/>
        <path class="cls-4" d="M320.54,268.73l6.92-14.99-67.77,12.48c1.29-1.29,2.48-2.63,3.55-4,4.36-5.58,6.84-11.55,7.45-17.91s-.83-12.85-4.31-19.49c-3.52-6.72-8.1-11.67-13.72-14.88-5.62-3.2-11.96-4.57-19.01-4.11-7.04.46-14.56,2.78-22.55,6.97l-38.54,18.81,70.72,138.6h19.6l-41.58-81.04,4.61-2.42,94.63-18.02ZM214.12,275.31l-18.86-36.07,22.53-11.82c7.38-3.88,13.77-5.23,19.16-4.04,5.38,1.18,9.57,4.61,12.55,10.3,2.98,5.68,3.44,11.1,1.38,16.25-2.07,5.15-6.8,9.66-14.18,13.53l-22.58,11.85Z"/>
        <path class="cls-4" d="M275.17,370.32l-33.41-76.58,42.05-7.73c8.11-.42,15.4.93,21.84,4.05,6.45,3.12,11.57,7.73,15.38,13.81,3.8,6.08,5.92,13.29,6.36,21.61.43,8.32-.92,15.71-4.08,22.15-3.15,6.45-7.77,11.55-13.86,15.33-6.09,3.78-13.19,5.87-21.3,6.3l-12.98,1.06ZM287.02,355.76l-.42.47c5.72-.3,10.61-1.75,14.65-4.34,4.04-2.6,7.13-6.1,9.26-10.5,2.13-4.4,3.05-9.46,2.75-15.17-.31-5.87-1.75-10.84-4.32-14.92-2.57-4.08-6.01-7.2-10.3-9.36-4.29-2.16-9.3-3.09-15.02-2.79l-20.53,3.73,23.92,52.88Z"/>
        <polygon class="cls-4" points="411.64 351.76 411.64 370.21 338.1 370.54 334.38 262.97 379.36 262.97 379.36 279.11 350.53 279.11 351.23 306.79 379.36 306.75 379.44 322.93 351.63 322.93 352.37 352.37 411.64 351.76"/>
        <path class="cls-4" d="M391.77,340.56l.27-102.97-104.94,6.92v-17.3l156.83-10.38v17.3l-33.44,2.31.19,104.12h-18.92Z"/>
        <path class="cls-4" d="M424.33,370.21l-.22-118.45h18.92v102.06l73.56.24v16.14h-92.26Z"/>
        <path class="cls-4" d="M477.14,276.73h37.65v18.51h-37.65v28.6l37.14.24v18.46l-56.06.33v-121.09l85.31-.26c2.7,6.36,5.15,12.86,7.32,19.49l-73.71-.2v35.92Z"/>
        <path class="cls-4" d="M553.65,250.15l-61.77-.69v19.03h33.76v102.05h18.92v-102.05l13.58.16c-1.26-6.26-2.76-12.43-4.49-18.5Z"/>
      </g>
      <path class="cls-3" d="M313.29,72.04v88.41c0,10.63-8.7,19.34-19.34,19.34h-36.12c-10.64,0-19.34-8.71-19.34-19.34v-75.46c23.53-7.99,48.67-12.52,74.8-12.95Z"/>
      <path class="cls-3" d="M396.18,84.88v75.57c0,10.63-8.7,19.34-19.34,19.34h-36.12c-10.64,0-19.34-8.71-19.34-19.34v-88.42c26.13.41,51.27,4.89,74.8,12.85Z"/>
      <path class="cls-3" d="M479.07,132.65v27.8c0,10.63-8.71,19.34-19.34,19.34h-36.13c-10.63,0-19.33-8.71-19.33-19.34v-72.67c27.66,10.45,52.94,25.75,74.8,44.87Z"/>
      <path class="cls-3" d="M230.4,87.9v72.55c0,10.63-8.7,19.34-19.33,19.34h-36.13c-10.64,0-19.34-8.71-19.34-19.34v-27.51c21.85-19.18,47.13-34.54,74.8-45.04Z"/>
      <path class="cls-8" d="M510,565.42v-78.79c0-5.19-.4-10.28-1.18-15.26-7.4-47.46-48.72-84.08-98.16-84.08h-177.68c-52.55,0-95.92,41.37-99.14,93.14-.13,2.05-.2,4.12-.2,6.2v78.79c0,1.57.03,3.12.1,4.66-.07,2.09-.1,4.19-.1,6.3v.1c0,103.93,84.25,188.18,188.18,188.18s188.18-84.25,188.18-188.18c0-2.14-.03-4.27-.11-6.39h0c.08-1.55.11-3.1.11-4.67ZM498,566.08c0,1.45-.03,2.9-.1,4.33.07,1.97.1,3.96.1,5.96,0,.8-.01,1.59-.01,2.38-1.28,95.54-79.15,172.62-174.99,172.62s-169.65-73.11-174.73-165.19c-.19-3.25-.28-6.52-.28-9.81,0-1.56.02-3.11.06-4.64.01-.44.02-.88.04-1.32-.07-1.43-.1-2.88-.1-4.33v-73.28c0-50.8,41.58-92.38,92.38-92.38h75.63v230.58c0,3.31,2.69,6,6,6s6-2.69,6-6v-230.58h77.61c47.95,0,87.69,37.04,92,83.91.26,2.79.39,5.62.39,8.47v73.28Z"/>
      <path class="cls-1" d="M498,566.08c0,1.45-.03,2.9-.1,4.33.07,1.97.1,3.96.1,5.96,0,.8-.01,1.59-.01,2.38-1.28,95.54-79.15,172.62-174.99,172.62s-169.65-73.11-174.73-165.19c-.19-3.25-.28-6.52-.28-9.81,0-1.56.02-3.11.06-4.64.01-.44.02-.88.04-1.32-.07-1.43-.1-2.88-.1-4.33v-73.28c0-50.8,41.58-92.38,92.38-92.38h75.63v230.58c0,3.31,2.69,6,6,6s6-2.69,6-6v-230.58h77.61c47.95,0,87.69,37.04,92,83.91.26,2.79.39,5.62.39,8.47v73.28Z"/>
    </g>
  </g>
</svg>