<?xml version="1.0" encoding="UTF-8"?>
<svg id="Layer_2" data-name="Layer 2" xmlns="http://www.w3.org/2000/svg" viewBox="0 0 2924.32 783.59">
  <defs>
    <style>
      .cls-1 {
        fill: #ff66c4;
      }

      .cls-2 {
        fill: #abd43e;
      }

      .cls-3 {
        fill: #008071;
      }
    </style>
  </defs>
  <g id="Layer_1-2" data-name="Layer 1">
    <g>
      <g>
        <path class="cls-1" d="M1024.47,309.84l1.57-271.63h-65.04V10.02h197.29v28.18h-97.56l-.7,271.63h-35.57Z"/>
        <path class="cls-1" d="M1145.29,64.22h-45.53l-2.55,245.62h36.39l.43-109.03h42.7l55.28,108.4h36.86l-123.58-244.99ZM1134.14,170.46l.21-52.73,26.9,52.73h-27.11Z"/>
        <path class="cls-1" d="M1446.65,118.43l13-28.19-127.4,23.47c2.43-2.43,4.65-4.93,6.67-7.52,8.19-10.5,12.86-21.72,14-33.68,1.14-11.95-1.56-24.17-8.1-36.64-6.63-12.63-15.23-21.95-25.8-27.97-10.57-6.01-22.48-8.59-35.73-7.74-13.25.87-27.38,5.23-42.4,13.11l-72.46,35.36,132.96,260.58h36.85l-78.18-152.36,8.65-4.54,177.94-33.88ZM1246.55,130.79l-35.45-67.81,42.36-22.23c13.88-7.28,25.89-9.82,36.02-7.59,10.13,2.22,17.99,8.68,23.6,19.36,5.61,10.69,6.47,20.88,2.59,30.55-3.88,9.68-12.77,18.16-26.66,25.45l-42.46,22.27Z"/>
      </g>
      <g>
        <path class="cls-2" d="M1361.35,309.42l-62.8-143.97,79.05-14.53c15.25-.8,28.94,1.74,41.07,7.61,12.12,5.87,21.76,14.52,28.91,25.96,7.15,11.44,11.13,24.98,11.95,40.63s-1.74,29.54-7.66,41.65c-5.92,12.12-14.61,21.72-26.05,28.82-11.45,7.1-24.8,11.04-40.05,11.84l-24.41,1.99ZM1383.62,282.04l-.78.88c10.76-.56,19.94-3.28,27.54-8.16,7.6-4.88,13.4-11.46,17.41-19.74,4-8.28,5.73-17.79,5.17-28.52-.57-11.03-3.28-20.38-8.12-28.05-4.84-7.67-11.29-13.54-19.36-17.6-8.07-4.06-17.48-5.81-28.24-5.25l-38.59,7.02,44.97,99.42Z"/>
        <polygon class="cls-2" points="1617.92 274.53 1617.92 309.21 1479.66 309.84 1472.66 107.58 1557.22 107.58 1557.22 137.94 1503.02 137.94 1504.33 189.96 1557.22 189.9 1557.38 220.32 1505.09 220.32 1506.48 275.67 1617.92 274.53"/>
        <path class="cls-2" d="M1580.55,253.47l.52-193.58-197.29,13.01v-32.52l294.86-19.51v32.52l-62.87,4.34.36,195.75h-35.57Z"/>
      </g>
      <g>
        <path class="cls-3" d="M1641.77,309.21l-.42-222.68h35.57v191.87l138.3.46v30.35h-173.44Z"/>
        <polygon class="cls-3" points="1741.06 65.93 1741.06 133.47 1811.85 133.47 1811.85 168.27 1741.06 168.27 1741.06 222.03 1810.88 222.49 1810.88 257.18 1705.49 257.81 1705.49 30.16 1906.27 29.53 1906.27 66.39 1741.06 65.93"/>
        <path class="cls-3" d="M1832.25,309.84V117.96h-63.47v-35.77l137.5,1.54v34.69l-38.46-.46v191.87h-35.56Z"/>
      </g>
    </g>
    <g>
      <path class="cls-3" d="M2924.32,336.43c0,103.02-49.07,194.59-125.11,252.59h0c.08-1.55.11-3.1.11-4.67v-10.7c68.95-56,113-141.47,113-237.22,0-168.72-136.78-305.5-305.5-305.5s-305.5,136.78-305.5,305.5c0,99.69,47.76,188.24,121.64,244v3.92c0,1.57.03,3.12.1,4.66-.07,2.09-.1,4.19-.1,6.3-80.88-57.55-133.64-152.05-133.64-258.88,0-175.35,142.15-317.5,317.5-317.5s317.5,142.15,317.5,317.5Z"/>
      <path class="cls-2" d="M2912.32,336.43c0,95.75-44.05,181.22-113,237.22v-64.69c41.04-45.76,66-106.23,66-172.53,0-26.61-4.02-52.29-11.49-76.45-2.05-6.65-4.37-13.18-6.94-19.58-16.7-41.73-43.97-78.09-78.5-105.78-22.22-17.81-47.45-32.02-74.8-41.77-2.67-.95-5.37-1.86-8.09-2.73-22.66-7.23-46.68-11.42-71.58-12.1-2.36-.06-4.72-.09-7.1-.09s-4.96.03-7.42.1c-24.91.71-48.93,4.93-71.59,12.2-2.72.87-5.42,1.78-8.09,2.74-27.36,9.79-52.59,24.06-74.8,41.92-31.47,25.32-56.89,57.86-73.75,95.11-2.22,4.91-4.29,9.91-6.21,14.99-10.76,28.43-16.64,59.25-16.64,91.44,0,70.83,28.49,135.02,74.64,181.71v62.29c-73.88-55.76-121.64-144.31-121.64-244,0-168.72,136.78-305.5,305.5-305.5s305.5,136.78,305.5,305.5Z"/>
      <path class="cls-3" d="M2799.32,508.96v-3.4c0-5.19-.4-10.28-1.18-15.26,33.89-42.1,54.18-95.61,54.18-153.87,0-16.73-1.67-33.06-4.86-48.85-1.26-6.26-2.76-12.43-4.49-18.5-.88-3.07-1.81-6.12-2.8-9.14-2.17-6.63-4.62-13.13-7.32-19.49-14.6-34.33-36.79-64.66-64.46-88.87-21.86-19.12-47.14-34.42-74.8-44.87-2.68-1.02-5.37-1.98-8.09-2.9-23.53-7.96-48.67-12.44-74.8-12.85-1.29-.02-2.58-.03-3.88-.03-1.41,0-2.81.01-4.21.04-26.13.43-51.27,4.96-74.8,12.95-2.72.92-5.41,1.89-8.09,2.91-27.67,10.5-52.95,25.86-74.8,45.04-24.68,21.67-44.98,48.22-59.39,78.13-2.37,4.91-4.58,9.9-6.61,14.99-11.35,28.26-17.6,59.12-17.6,91.44,0,62.53,23.37,119.59,61.84,162.93-.13,2.05-.2,4.12-.2,6.2v12.58c-46.15-46.69-74.64-110.88-74.64-181.71,0-32.19,5.88-63.01,16.64-91.44,1.92-5.08,3.99-10.08,6.21-14.99,16.86-37.25,42.28-69.79,73.75-95.11,22.21-17.86,47.44-32.13,74.8-41.92,2.67-.96,5.37-1.87,8.09-2.74,22.66-7.27,46.68-11.49,71.59-12.2,2.46-.07,4.94-.1,7.42-.1s4.74.03,7.1.09c24.9.68,48.92,4.87,71.58,12.1,2.72.87,5.42,1.78,8.09,2.73,27.35,9.75,52.58,23.96,74.8,41.77,34.53,27.69,61.8,64.05,78.5,105.78,2.57,6.4,4.89,12.93,6.94,19.58,7.47,24.16,11.49,49.84,11.49,76.45,0,66.3-24.96,126.77-66,172.53Z"/>
      <path class="cls-1" d="M2602.61,90.97v88.41c0,10.63-8.7,19.34-19.34,19.34h-36.12c-10.64,0-19.34-8.71-19.34-19.34v-75.46c23.53-7.99,48.67-12.52,74.8-12.95Z"/>
      <path class="cls-1" d="M2685.5,103.81v75.57c0,10.63-8.7,19.34-19.34,19.34h-36.12c-10.64,0-19.34-8.71-19.34-19.34v-88.42c26.13.41,51.27,4.89,74.8,12.85Z"/>
      <path class="cls-1" d="M2768.39,151.58v27.8c0,10.63-8.71,19.34-19.34,19.34h-36.13c-10.63,0-19.33-8.71-19.33-19.34v-72.67c27.66,10.45,52.94,25.75,74.8,44.87Z"/>
      <path class="cls-1" d="M2519.72,106.83v72.55c0,10.63-8.7,19.34-19.33,19.34h-36.13c-10.64,0-19.34-8.71-19.34-19.34v-27.51c21.85-19.18,47.13-34.54,74.8-45.04Z"/>
      <path class="cls-3" d="M2798.14,490.3c-7.4-47.46-48.72-84.08-98.16-84.08h-177.68c-52.55,0-95.92,41.37-99.14,93.14-.13,2.05-.2,4.12-.2,6.2v78.79c0,1.57.03,3.12.1,4.66-.07,2.09-.1,4.19-.1,6.3v.1c0,103.93,84.25,188.18,188.18,188.18s188.18-84.25,188.18-188.18c0-2.14-.03-4.27-.11-6.39h0c.08-1.55.11-3.1.11-4.67v-78.79c0-5.19-.4-10.28-1.18-15.26ZM2787.32,585.01c0,1.45-.03,2.9-.1,4.33.07,1.97.1,3.96.1,5.96,0,.8-.01,1.59-.01,2.38-1.28,95.54-79.15,172.62-174.99,172.62s-169.65-73.11-174.73-165.19c-.19-3.25-.28-6.52-.28-9.81,0-1.56.02-3.11.06-4.64.01-.44.02-.88.04-1.32-.07-1.43-.1-2.88-.1-4.33v-73.28c0-50.8,41.58-92.38,92.38-92.38h75.63v230.58c0,3.31,2.69,6,6,6s6-2.69,6-6v-230.58h77.61c47.95,0,87.69,37.04,92,83.91.26,2.79.39,5.62.39,8.47v73.28Z"/>
      <path class="cls-1" d="M2787.32,585.01c0,1.45-.03,2.9-.1,4.33.07,1.97.1,3.96.1,5.96,0,.8-.01,1.59-.01,2.38-1.28,95.54-79.15,172.62-174.99,172.62s-169.65-73.11-174.73-165.19c-.19-3.25-.28-6.52-.28-9.81,0-1.56.02-3.11.06-4.64.01-.44.02-.88.04-1.32-.07-1.43-.1-2.88-.1-4.33v-73.28c0-50.8,41.58-92.38,92.38-92.38h75.63v230.58c0,3.31,2.69,6,6,6s6-2.69,6-6v-230.58h77.61c47.95,0,87.69,37.04,92,83.91.26,2.79.39,5.62.39,8.47v73.28Z"/>
    </g>
    <g>
      <g>
        <polygon class="cls-3" points="516.58 372.91 516.58 389.05 424.33 389.05 424.11 270.61 443.02 270.61 443.02 372.66 516.58 372.91"/>
        <polygon class="cls-3" points="443.93 252.98 410.49 255.28 410.68 359.4 391.77 359.4 392.04 256.44 287.1 263.35 287.1 246.06 443.93 235.68 443.93 252.98"/>
        <polygon class="cls-3" points="411.64 370.6 411.64 389.05 338.1 389.38 334.38 281.81 379.36 281.81 379.36 297.95 350.53 297.95 351.23 325.63 379.36 325.59 379.44 341.77 351.63 341.77 352.37 371.21 411.64 370.6"/>
        <path class="cls-3" d="M327.39,344.32c-.43-8.32-2.55-15.53-6.35-21.61-3.81-6.08-8.94-10.68-15.38-13.81-6.45-3.12-13.73-4.47-21.84-4.05l-42.05,7.73,33.4,76.58,12.98-1.06c8.12-.42,15.22-2.52,21.31-6.29,6.08-3.78,10.71-8.89,13.86-15.33,3.15-6.45,4.51-13.83,4.07-22.16ZM310.51,360.23c-2.13,4.4-5.22,7.9-9.26,10.5-4.04,2.59-8.92,4.04-14.65,4.34l.42-.47-23.92-52.88,20.53-3.74c5.72-.3,10.73.64,15.02,2.8,4.29,2.16,7.72,5.28,10.3,9.36,2.57,4.08,4.01,9.05,4.31,14.92.3,5.71-.62,10.76-2.75,15.17Z"/>
        <path class="cls-3" d="M320.54,287.57l6.92-14.99-67.77,12.48c1.29-1.29,2.48-2.63,3.55-4,4.36-5.58,6.84-11.55,7.45-17.91.61-6.36-.83-12.85-4.31-19.49-3.52-6.72-8.1-11.67-13.72-14.88-5.62-3.2-11.96-4.57-19.01-4.11-7.04.46-14.56,2.78-22.55,6.97l-38.54,18.81,70.72,138.6h19.6l-41.58-81.04,4.61-2.42,94.63-18.02ZM214.12,294.15l-18.86-36.07,22.53-11.82c7.38-3.88,13.77-5.23,19.16-4.04,5.38,1.18,9.57,4.61,12.55,10.3,2.98,5.68,3.44,11.1,1.38,16.25-2.07,5.15-6.8,9.66-14.18,13.53l-22.58,11.85Z"/>
        <path class="cls-3" d="M160.25,258.74h-24.22l-1.35,130.64h19.35l.23-57.99h22.71l29.41,57.66h19.6l-65.73-130.31ZM154.32,315.25l.11-28.06,14.31,28.06h-14.42Z"/>
        <path class="cls-3" d="M635,336.34c0-175.35-142.15-317.5-317.5-317.5S0,160.99,0,336.34c0,106.83,52.76,201.33,133.64,258.88v.1c0,103.93,84.25,188.18,188.18,188.18s188.18-84.25,188.18-188.18c0-2.14-.03-4.27-.11-6.39,76.04-58,125.11-149.57,125.11-252.59ZM498,584.92c0,1.45-.03,2.9-.1,4.33.07,1.97.1,3.96.1,5.96,0,.8-.01,1.59-.01,2.38-1.28,95.54-79.15,172.62-174.99,172.62s-169.65-73.11-174.73-165.19c-.19-3.25-.28-6.52-.28-9.81,0-1.56.02-3.11.06-4.64.01-.44.02-.88.04-1.32-.07-1.43-.1-2.88-.1-4.33v-73.28c0-50.8,41.58-92.38,92.38-92.38h75.63v230.58c0,3.31,2.69,6,6,6s6-2.69,6-6v-230.58h77.61c47.95,0,87.69,37.04,92,83.91.26,2.79.39,5.62.39,8.47v73.28ZM508.82,490.21c-7.4-47.46-48.72-84.08-98.16-84.08h-177.68c-52.55,0-95.92,41.37-99.14,93.14-38.47-43.34-61.84-100.4-61.84-162.93,0-32.32,6.25-63.18,17.6-91.44h7.22l-.83,144.48h18.91l.37-144.48h51.9v-14.99h-70.96c14.41-29.91,34.71-56.46,59.39-78.13,21.85-19.18,47.13-34.54,74.8-45.04,2.68-1.02,5.37-1.99,8.09-2.91,23.53-7.99,48.67-12.52,74.8-12.95,1.4-.03,2.8-.04,4.21-.04,1.3,0,2.59.01,3.88.03,26.13.41,51.27,4.89,74.8,12.85,2.72.92,5.41,1.88,8.09,2.9,27.66,10.45,52.94,25.75,74.8,44.87,27.67,24.21,49.86,54.54,64.46,88.87l-85.31.26v121.09l56.06-.33v-18.46l-37.14-.24v-28.6h37.65v-18.51h-37.65v-35.92l73.71.2c.99,3.02,1.92,6.07,2.8,9.14l-61.77-.69v19.03h33.76v102.05h18.92v-102.05l13.58.16c3.19,15.79,4.86,32.12,4.86,48.85,0,58.26-20.29,111.77-54.18,153.87ZM510,573.56v-64.69c41.04-45.76,66-106.23,66-172.53,0-26.61-4.02-52.29-11.49-76.45-2.05-6.65-4.37-13.18-6.94-19.58-16.7-41.73-43.97-78.09-78.5-105.78-22.22-17.81-47.45-32.02-74.8-41.77-2.67-.95-5.37-1.86-8.09-2.73-22.66-7.23-46.68-11.42-71.58-12.1-2.36-.06-4.72-.09-7.1-.09s-4.96.03-7.42.1c-24.91.71-48.93,4.93-71.59,12.2-2.72.87-5.42,1.78-8.09,2.74-27.36,9.79-52.59,24.06-74.8,41.92-31.47,25.32-56.89,57.86-73.75,95.11-2.22,4.91-4.29,9.91-6.21,14.99-10.76,28.43-16.64,59.25-16.64,91.44,0,70.83,28.49,135.02,74.64,181.71v62.29C59.76,524.58,12,436.03,12,336.34,12,167.62,148.78,30.84,317.5,30.84s305.5,136.78,305.5,305.5c0,95.75-44.05,181.22-113,237.22Z"/>
      </g>
      <path class="cls-2" d="M623,336.34c0,95.75-44.05,181.22-113,237.22v-64.69c41.04-45.76,66-106.23,66-172.53,0-26.61-4.02-52.29-11.49-76.45-2.05-6.65-4.37-13.18-6.94-19.58-16.7-41.73-43.97-78.09-78.5-105.78-22.22-17.81-47.45-32.02-74.8-41.77-2.67-.95-5.37-1.86-8.09-2.73-22.66-7.23-46.68-11.42-71.58-12.1-2.36-.06-4.72-.09-7.1-.09s-4.96.03-7.42.1c-24.91.71-48.93,4.93-71.59,12.2-2.72.87-5.42,1.78-8.09,2.74-27.36,9.79-52.59,24.06-74.8,41.92-31.47,25.32-56.89,57.86-73.75,95.11-2.22,4.91-4.29,9.91-6.21,14.99-10.76,28.43-16.64,59.25-16.64,91.44,0,70.83,28.49,135.02,74.64,181.71v62.29C59.76,524.58,12,436.03,12,336.34,12,167.62,148.78,30.84,317.5,30.84s305.5,136.78,305.5,305.5Z"/>
      <g>
        <path class="cls-1" d="M479.07,151.49v27.8c0,10.63-8.71,19.34-19.34,19.34h-36.13c-10.63,0-19.33-8.71-19.33-19.34v-72.67c27.66,10.45,52.94,25.75,74.8,44.87Z"/>
        <path class="cls-1" d="M396.18,103.72v75.57c0,10.63-8.7,19.34-19.34,19.34h-36.12c-10.64,0-19.34-8.71-19.34-19.34v-88.42c26.13.41,51.27,4.89,74.8,12.85Z"/>
        <path class="cls-1" d="M313.29,90.88v88.41c0,10.63-8.7,19.34-19.34,19.34h-36.12c-10.64,0-19.34-8.71-19.34-19.34v-75.46c23.53-7.99,48.67-12.52,74.8-12.95Z"/>
        <path class="cls-1" d="M230.4,106.74v72.55c0,10.63-8.7,19.34-19.33,19.34h-36.13c-10.64,0-19.34-8.71-19.34-19.34v-27.51c21.85-19.18,47.13-34.54,74.8-45.04Z"/>
        <path class="cls-1" d="M498,584.92c0,1.45-.03,2.9-.1,4.33.07,1.97.1,3.96.1,5.96,0,.8-.01,1.59-.01,2.38-1.28,95.54-79.15,172.62-174.99,172.62s-169.65-73.11-174.73-165.19c-.19-3.25-.28-6.52-.28-9.81,0-1.56.02-3.11.06-4.64.01-.44.02-.88.04-1.32-.07-1.43-.1-2.88-.1-4.33v-73.28c0-50.8,41.58-92.38,92.38-92.38h75.63v230.58c0,3.31,2.69,6,6,6s6-2.69,6-6v-230.58h77.61c47.95,0,87.69,37.04,92,83.91.26,2.79.39,5.62.39,8.47v73.28Z"/>
      </g>
    </g>
  </g>
</svg>