<?xml version="1.0" encoding="UTF-8"?>
<svg id="Lag_2" xmlns="http://www.w3.org/2000/svg" viewBox="0 0 544.81 564.96">
  <defs>
    <style>
      .cls-1 {
        fill: #7a8fe2;
      }

      .cls-2 {
        fill: #f9ada9;
      }

      .cls-3 {
        fill: #7a91e4;
      }

      .cls-4 {
        fill: #e9e4e8;
      }

      .cls-5 {
        fill: #562c5d;
      }

      .cls-6 {
        fill: #fee0ee;
      }

      .cls-7 {
        fill: #604279;
      }

      .cls-8 {
        fill: #f1a6a6;
      }

      .cls-9 {
        fill: #f5ae58;
      }

      .cls-10 {
        fill: #f8f6f8;
      }

      .cls-11 {
        fill: #fefefe;
      }

      .cls-12 {
        fill: #fddfee;
      }

      .cls-13 {
        fill: #362d5c;
      }

      .cls-14 {
        fill: #e5748e;
      }

      .cls-15 {
        fill: #f5aaa6;
      }
    </style>
  </defs>
  <g id="Lag_1-2" data-name="Lag_1">
    <g>
      <path class="cls-6" d="M0,259.42C0,246.93,0,234.44,0,221.95c.64-.7,1.71-1.32,1.85-2.1,7.09-40.94,29.15-72.96,63.08-95.06,18.2-11.85,26.95-26.84,33.53-46.07,10.18-29.71,55.5-59.02,87.01-58.17-.68,5.61-1.17,10.89-5.19,15.84-17.81,21.93-13.06,42.18,12.43,55.34,18.24.97,18.79,21.36,30.3,28.13,16.67,9.8,13.51,23.6,13.18,37.75-8.58,2.83-14.06,8.43-15.66,17.5-22.46,12.74-46.02,24.21-56.68,50.3-9.41,23.03-12.91,47-10.76,71.68,1.44,16.55,4.94,32.37,23,39.44-.83,15.6-3.05,17.37-17.91,14.59-14.47-2.71-28.96-5.33-43.44-7.98-15.38-9.8-29.56-20.62-33.89-39.83-.96-4.26,1.94-10.78-4.93-11.73-7.69-1.07-8.72,6.31-10.88,11.21-6.96,15.79-13.82,31.66-16.27,48.97-18.88-8.76-25.6-27.12-33.96-43.88C7.21,292.65,4.87,275.6,0,259.42Z"/>
      <path class="cls-6" d="M467.1,146.99c4.8,4.13,5.62,9.63,5.67,15.58.17,18.74-.96,37.35-9.24,54.51-4.23,8.77.05,12.15,7.03,15.22,22.98,10.13,43.36,23.37,58.62,44.19,7.89,10.76,9.82,23.51,15.63,34.81v23.06c-4.81,8.08-6.37,17.51-12.15,25.41-16.82,23-40.05,36.31-66.16,45.2-9.74,3.32-11.07,5.29-3.69,13.67,16.73,18.98,13.82,61.16-4.52,78.57-17.79,16.87-40.56,19.66-63.52,21.61-4.06-23.85-8.12-47.71-12.18-71.56,15.84-15.27,20.44-32.98,14.99-54.71-4.99-19.88-7.15-40.46-10.7-60.71-1.59-9.06-.33-13.85,10.9-10.72,11.74,3.27,23.94,2.6,35.33-2,8.48-3.43,16.7-7.94,16.5-19.22,5.03-13.9,4.21-27.86.09-41.74-6.13-20.63-7.13-42.49-15.06-62.68,3.58-10.65,13.18-18.22,15.2-29.68,1.01-.5,2.03-.99,3.04-1.49,5.36-.47,5.44-4.4,5.46-8.36.14-1.95.28-3.9.42-5.85,2.78-1.04,5.56-2.07,8.34-3.11Z"/>
      <path class="cls-9" d="M382.6,447.26c4.06,23.85,8.12,47.71,12.18,71.56.05,15.38.09,30.76.14,46.13h-190.25c-.74-18.4,1.48-36.57,4.25-54.7,5.65-21.12,11.3-42.23,16.95-63.35,14.1,2.29,28.15.2,42.21-.58,4.03.23,8.19,1.32,11.76-1.7,12.82-.69,25.44,0,38.27,1.75,21.33,2.92,42.9,10.39,64.49.88Z"/>
      <path class="cls-5" d="M185.46,20.55c3.27-9.77,11.42-14.99,19.2-20.55h17.3c1.99,3.44,6.27,3.81,8.73,3.46,26.02-3.7,42.78,14.6,62.57,25.67.93,1.19,1.86,2.38,2.79,3.57,0,0-.2,0-.2,0,1.29,6.35,2.68,12.7.57,19.15-10.39-8.93-20.33-19.03-34.44-21.43-8.51-1.45-18.3-6.66-25.56,3.42-10.43-1-15.84,2.74-14.08,14.14.48,3.12-.52,6.46-.84,9.7-8.5,2.95-24.3-1.18-16.79,17.3-5.43,4.56-14.01,6.86-11.99,16.75-25.5-13.16-30.25-33.41-12.44-55.34,4.02-4.95,4.5-10.23,5.19-15.84Z"/>
      <path class="cls-3" d="M382.6,447.26c-21.59,9.51-43.16,2.04-64.49-.88-12.84-1.76-25.46-2.44-38.27-1.75,1.28-13.99-10.79-19.11-18.13-30.62-.33,13.5,7.42,21.94,6.38,32.33-14.06.78-28.11,2.87-42.22.58-4.27-4.45-8.5-8.94-12.8-13.35-9.71-9.95-19.79-19.72-16.24-35.69,4.43-19.62,5.72-39.49,4.91-59.54,3.97-20.33-3.25-38.89-8.49-57.88.57,16.96.97,33.72,1.23,50.5-3.07,1.05-4.1,3.45-4.23,6.44-2.94.15-5.88.3-8.82.45-1.78-.44-3.56-.88-5.34-1.32-18.07-7.07-21.57-22.88-23.01-39.43-2.14-24.68,1.35-48.65,10.76-71.68,10.66-26.08,34.22-37.56,56.68-50.29,8.36,2.47,10.69,15.75,22.27,12.44,3.35-.06,6.69-.11,10.04-.17.33,3.7.67,7.39,1,11.09-4.2,11.86,1.56,19.63,12.23,28.64-3.99-15.57-6.07-28.47,2.67-40.16,5.68,1.51,10.09-1.33,14.15-4.53,8.81-6.96,17.41-14.19,26.09-21.31,29.71,15.03,63.35,24.17,82.36,55.25,1.4,2.29,4.29,3.67,6.48,5.48-.64,7.57-1.69,15.14-1.84,22.72-.41,19.73-5.04,40.13,8.3,57.91,2.12,5.54,7.05,7.33,12.09,8.62,13.43,3.44,23.5-3.5,33.25-11.19.2,11.28-8.02,15.79-16.5,19.22-11.39,4.6-23.59,5.26-35.33,2-11.23-3.12-12.48,1.66-10.9,10.72,3.55,20.25,5.71,40.83,10.7,60.71,5.46,21.73.86,39.44-14.99,54.71ZM190.23,259.44c.36,1.24.73,2.48,1.09,3.73.36-.24.72-.47,1.09-.71-.71-1.01-1.43-2.03-2.14-3.04-.38-2.56.85-5.79-2.53-7.09-.55-.21-2.44,1.28-2.59,2.18-.62,3.8,2.2,4.5,5.09,4.94ZM279.28,318.21c.27-2.63.27-5.18-2.36-6.81-1.09-11.42-2.17-22.85-3.26-34.27.2-5.31,4.29-6.92,8.26-8.53,2.53-1.03,6.13-1.22,5.04-5.22-.86-3.18-2.48-6.33-6.48-6.6-3.29-.22-6.61-.16-9.91-.22-2.97-6.06-2.75-12.58-2.75-19.07-.59-2.95-1.77-5.58-5.17-5.72-.87-.04-2.45,1.56-2.6,2.56-.57,3.95,2.41,4.53,5.36,4.93-6.56,9.49,2.01,19.02-.09,28.52.91,2.95,1.83,5.91,2.74,8.86,1.04,11.37,2.09,22.73,3.13,34.11,3.92,6.55-9.62,15.12,2.4,20.73.07,5.77.14,11.54.21,17.32-3.24,5.41-4.01,11.24-3,17.38-3.41,3.24-7.28,6.14-10.09,9.84-2.34,3.07-.87,6.56,2.26,8.65,2.63,1.76,6.76,1.86,7.02-1.39.45-5.72,7.09-11.22,1.08-17.26,1.87-2.68,4.7-2.72,7.57-2.84,4.13-.17,9.1.71,9.35-5.67.23-5.92-3.37-8.35-8.76-8.87.25-1.87.51-3.75.76-5.62,2.24-.4,4.56-.82,4.91-3.65.45-3.63-2.03-4.53-4.9-4.98-.23-5.39-.47-10.77-.7-16.16ZM263.97,400.16c2.83-.47,3.97-2.38,3.89-5-.06-1.74.22-4.27-2.71-3.8-3,.47-5.44,1.99-5.13,5.56.19,2.21,1.89,3.06,3.95,3.25ZM191.79,268.35c-1.45,1.14-2.35,1.86-3.26,2.57,1.18,1.19,2.22,2.61,3.6,3.51,1.2.78,2.99.31,2.68-1.33-.3-1.55-1.76-2.88-3.02-4.75Z"/>
      <path class="cls-15" d="M221.49,57.68c.32-3.24,1.32-6.58.84-9.7-1.76-11.4,3.65-15.14,14.08-14.14,14.88,2.77,27.6,9.91,33.1,24.07,4.41,11.36,11.54,13.03,21.5,12.05,4.2,11.68-7.88,15.55-11.25,23.56-7.83,18.61-4.94,35.63,8.44,50.81-4.99,4.34-9.93,8.75-14.99,13.01q-17.65,14.87-35.99,1.24c-.38-.28-.69-.65-1.03-.98.33-14.15,3.49-27.94-13.18-37.75-11.51-6.77-12.06-27.16-30.3-28.13-2.02-9.89,6.57-12.19,11.99-16.75,6.63-4.76,19.86-3.12,16.79-17.3ZM245.95,49.3c-5.5-.57-9.91,1.24-9.12,5.56,1.49,8.13,10.08,7.31,15.87,9.61,4.35,1.72,6.27-2.1,5.96-5.61-.73-8.3-8.23-7.83-12.71-9.56ZM237.17,109.34c1.86,5.39,5.48,5.93,9.38,5.96,6.69.06,8.88-4.47,9.45-9.95.28-2.76-1.53-6.88-4.45-5.21-4.93,2.81-11.24,4.24-14.38,9.2ZM240.92,130.84c12.18,8.21,15.76,8.25,22.32-.31-7.36,5.48-14.57-2.92-22.32.31Z"/>
      <path class="cls-2" d="M86.38,375.23c-4.78-.27-9.59-.27-14.33-.87-13.35-1.68-22.33-8.07-23.29-22.61,2.45-17.31,9.31-33.18,16.27-48.97,2.16-4.9,3.18-12.28,10.88-11.21,6.88.96,3.97,7.48,4.93,11.73,4.33,19.2,18.51,30.03,33.9,39.83,1.56,10.06-.45,19.37-5.87,27.97-7.41,1.86-14.66,4.56-22.49,4.13ZM77.99,322.65c-.49-.38-.99-.75-1.48-1.13.39.49.77.97,1.16,1.46-.37,4.61-.08,8.96-1.77,13.79-3.84,10.95-3.54,22.32,2.96,32.5,2.92-12.36.34-24.89,4.45-36.98,1.36-3.99.87-8.86-5.31-9.64Z"/>
      <path class="cls-11" d="M108.87,371.09c5.43-8.59,7.43-17.91,5.88-27.97,14.48,2.66,28.97,5.28,43.44,7.98,14.86,2.78,17.08,1.01,17.91-14.59,1.78.44,3.56.88,5.34,1.32,1.25,2.52,2.85,4.94,3.67,7.6,3.74,12.17,4.7,24.35-2.84,35.48-7.25,10.7-17.46,8.78-28.24,6.43-10.13-2.21-20.6-3.04-30.97-3.9-8.08-.66-13.93-3.09-14.18-12.36Z"/>
      <path class="cls-5" d="M236.19,157.6c.34.33.65.7,1.03.98q18.31,13.62,35.99-1.24c5.06-4.26,10-8.67,14.99-13.01,9.52,2.38,15.01,9.74,20.77,16.78-8.68,7.12-17.28,14.35-26.09,21.31-4.05,3.2-8.47,6.05-14.15,4.54-4.4-2.63-4.97-11.08-12.84-8.42-2.9.22-6.09-.47-8.11,2.55-1.66,2.16-3.32,4.31-4.98,6.47-11.58,3.3-13.91-9.98-22.27-12.44,1.6-9.08,7.08-14.68,15.66-17.51Z"/>
      <path class="cls-12" d="M308.97,161.11c-5.76-7.03-11.25-14.39-20.77-16.78-13.39-15.18-16.28-32.2-8.45-50.81,3.37-8.01,15.45-11.88,11.25-23.57,1.68-6.08,6.26-11.28,5.4-18.11,2.11-6.45.71-12.8-.57-19.15,16.61-2.54,23.93,11.91,34.03,20.04,6.45,5.19,11.65,8.17,19.77,7.92,26.62-.81,51.86,4.11,74.14,19.82-19.21.95-10.88,16.61-13.99,26.17-17.13,14.05-24.42,37.33-14.64,55.68,5.07,9.51,12.2,18.49,11.77,30.26-9.39,7.78-4.58,19.96-9.1,29.25-2.2-1.8-5.08-3.19-6.48-5.48-19.01-31.07-52.65-40.22-82.36-55.25Z"/>
      <path class="cls-10" d="M458.34,155.95c-.02,3.96-.09,7.89-5.46,8.36-2.93-5.71-8.22-2.69-12.46-3.18-8.28-.96-16.8,1.32-24.96-1.68-.39-19.99-.86-39.98-1.12-59.97-.07-5.59-.96-12.75,7.46-12.68,11.23.09,22.8-2.68,33.65,2.65,0,2.85,0,5.7,0,8.55-2.57,5.46-11.62,10.23-7.89,15.67,5.9,8.62,1.63,19.1,7.66,26.95-5.81,6.5-3.84,11.42,3.1,15.33Z"/>
      <path class="cls-7" d="M455.46,89.45c-10.85-5.33-22.42-2.56-33.65-2.65-8.43-.07-7.54,7.08-7.46,12.68.26,19.99.73,39.98,1.12,59.98-.13,1.48-.25,2.95-.38,4.43-6.28-2.73-4.58-8.52-5.52-13.53-2.73-14.63,6.23-29.12.23-43.7,3.1-9.56-5.22-25.22,13.99-26.17,7.44.23,14.9.17,22.3.78,4.8.39,11.1-.05,9.37,8.19Z"/>
      <path class="cls-2" d="M455.24,140.62c-6.03-7.85-1.76-18.34-7.66-26.95-3.73-5.44,5.31-10.21,7.89-15.67,12.81,8.08,7.6,22.37,11.29,33.58,1.54,4.67.31,10.25.34,15.42-2.78,1.04-5.56,2.07-8.34,3.11-3.85-2.17-3.13-6.03-3.52-9.48Z"/>
      <path class="cls-12" d="M296.04,32.7c-.93-1.19-1.86-2.38-2.79-3.57,1.91.42,2.93,1.55,2.79,3.57Z"/>
      <path class="cls-6" d="M196.82,397.87c-3.56,15.98,6.53,25.74,16.24,35.69,4.3,4.41,8.53,8.9,12.8,13.35-5.65,21.12-11.3,42.23-16.95,63.35-16.19-3.61-32.65-5.87-48.28-12.08-45.33-18-68.7-67.49-51.06-109.1,29.22,1.55,57.57,11.83,87.25,8.78Z"/>
      <path class="cls-4" d="M196.82,397.87c-29.69,3.04-58.03-7.23-87.25-8.78-5.48-8.39-18.84-3.6-23.19-13.87,7.83.44,15.09-2.27,22.49-4.13.25,9.26,6.1,11.69,14.18,12.35,10.37.85,20.84,1.69,30.97,3.9,10.78,2.35,20.99,4.27,28.24-6.43,7.54-11.13,6.58-23.31,2.84-35.48-.82-2.66-2.43-5.07-3.67-7.6,2.94-.15,5.88-.3,8.82-.45,1.77.09,3.54.17,5.31.26,2.06.23,4.12.46,6.18.69.81,20.05-.48,39.92-4.91,59.54Z"/>
      <path class="cls-8" d="M409.8,106.65c6,14.58-2.96,29.07-.23,43.7.94,5.01-.76,10.8,5.52,13.53,11.07,9.9,23.3-1.1,34.75,1.92-2.01,11.46-11.61,19.03-15.19,29.68-7.47.12-14.94.23-22.42.35-1.77-1.08-3.54-2.16-5.3-3.25.43-11.76-6.7-20.74-11.77-30.25-9.79-18.36-2.49-41.63,14.64-55.68Z"/>
      <path class="cls-4" d="M412.23,195.83c7.47-.11,14.95-.23,22.42-.35,7.93,20.19,8.93,42.04,15.05,62.68,4.12,13.88,4.94,27.83-.09,41.74-9.75,7.7-19.82,14.63-33.25,11.19-5.04-1.29-9.97-3.08-12.09-8.62,28.55.73,33.74-4.56,33.95-33.57.11-15.24-3.79-30.04-4.49-45.08-.7-15.06-4.83-25.93-21.5-28Z"/>
      <path class="cls-5" d="M449.84,165.8c-11.45-3.02-23.68,7.99-34.75-1.92.12-1.47.25-2.95.38-4.43,8.17,2.99,16.68.72,24.96,1.68,4.23.49,9.52-2.53,12.46,3.18-1.01.49-2.03.99-3.04,1.48Z"/>
      <path class="cls-8" d="M455.24,140.62c.39,3.45-.33,7.32,3.52,9.48-.14,1.95-.28,3.9-.42,5.85-6.94-3.91-8.91-8.84-3.1-15.33Z"/>
      <path class="cls-1" d="M268.08,446.34c1.04-10.39-6.71-18.83-6.38-32.33,7.34,11.51,19.41,16.63,18.13,30.62-3.56,3.03-7.72,1.94-11.76,1.71Z"/>
      <path class="cls-13" d="M296.41,51.85c.86,6.83-3.72,12.03-5.4,18.11-9.96.99-17.09-.68-21.5-12.04-5.49-14.16-18.21-21.3-33.1-24.07,7.26-10.09,17.05-4.87,25.56-3.42,14.1,2.4,24.05,12.5,34.44,21.43Z"/>
      <path class="cls-13" d="M221.49,57.68c3.07,14.18-10.16,12.54-16.79,17.3-7.51-18.48,8.29-14.35,16.79-17.3Z"/>
      <path class="cls-11" d="M412.23,195.83c16.66,2.07,20.79,12.94,21.5,28,.7,15.04,4.6,29.84,4.49,45.08-.21,29.01-5.4,34.3-33.95,33.57-13.33-17.78-8.7-38.18-8.29-57.91.16-7.58,1.2-15.15,1.84-22.72,4.53-9.28-.28-21.47,9.1-29.25,1.77,1.08,3.54,2.16,5.31,3.24Z"/>
      <path class="cls-5" d="M201.73,338.34c-2.06-.23-4.12-.46-6.18-.69-.36-2.23-.72-4.46-1.08-6.69-.27-16.77-.66-33.54-1.23-50.5,5.24,18.99,12.46,37.55,8.49,57.88Z"/>
      <path class="cls-1" d="M255.89,178.53c7.87-2.66,8.44,5.79,12.84,8.42-8.73,11.69-6.66,24.59-2.67,40.16-10.67-9.01-16.42-16.78-12.23-28.63,12.48-5.43.05-13.43,2.05-19.95Z"/>
      <path class="cls-1" d="M268.05,276.63c-.91-2.95-1.83-5.91-2.74-8.86,9.43-.14,3.88-7.3,5.25-11.22,3.31.06,6.62,0,9.91.22,4,.27,5.62,3.42,6.48,6.6,1.09,4-2.5,4.19-5.04,5.22-3.97,1.61-8.06,3.22-8.26,8.53-1.87-.17-3.74-.33-5.61-.5Z"/>
      <path class="cls-1" d="M270.79,366.18c-1-6.14-.24-11.98,3-17.39,1.81-.05,3.61-.11,5.42-.16,5.39.52,8.99,2.95,8.76,8.87-.25,6.39-5.22,5.5-9.35,5.67-2.86.12-5.69.16-7.57,2.84l-.27.17Z"/>
      <path class="cls-7" d="M268.05,276.63c1.87.17,3.74.33,5.61.5,1.08,11.43,2.17,22.85,3.26,34.27-1.91-.22-3.83-.45-5.74-.67-1.04-11.37-2.09-22.73-3.13-34.1Z"/>
      <path class="cls-1" d="M271.06,366.01c6.01,6.04-.62,11.55-1.08,17.26-.26,3.25-4.38,3.15-7.02,1.39-3.14-2.1-4.6-5.59-2.26-8.65,2.82-3.7,6.68-6.59,10.09-9.84,0,0,.27-.17.27-.17Z"/>
      <path class="cls-7" d="M270.57,256.56c-1.37,3.92,4.18,11.08-5.25,11.22,2.1-9.5-6.47-19.04.09-28.53.8-.59,1.61-1.18,2.41-1.77,0,6.49-.22,13.01,2.75,19.07Z"/>
      <path class="cls-7" d="M279.21,348.63c-1.81.05-3.61.11-5.42.16-.07-5.77-.14-11.54-.21-17.32.3-5.11,1.58-9.8,5.7-13.26.23,5.39.47,10.77.7,16.16,0,2.88,0,5.76-.01,8.63-.25,1.87-.51,3.75-.76,5.62Z"/>
      <path class="cls-1" d="M279.28,318.21c-4.12,3.47-5.4,8.15-5.7,13.26-12.02-5.61,1.52-14.18-2.4-20.73,1.91.22,3.83.44,5.74.66,2.63,1.63,2.63,4.17,2.36,6.81Z"/>
      <path class="cls-7" d="M255.89,178.53c-2,6.51,10.43,14.52-2.05,19.95-.33-3.7-.67-7.4-1-11.09-.11-3.37-1.85-5.43-5.06-6.3,2.02-3.02,5.21-2.33,8.11-2.55Z"/>
      <path class="cls-1" d="M263.97,400.16c-2.06-.19-3.76-1.03-3.95-3.24-.31-3.57,2.13-5.09,5.13-5.56,2.93-.46,2.65,2.07,2.71,3.8.09,2.62-1.06,4.53-3.89,5Z"/>
      <path class="cls-1" d="M267.82,237.49c-.81.59-1.61,1.18-2.41,1.77-2.95-.4-5.93-.98-5.36-4.93.15-1,1.73-2.59,2.6-2.56,3.41.14,4.59,2.77,5.17,5.72Z"/>
      <path class="cls-1" d="M190.23,259.44c-2.89-.44-5.71-1.14-5.09-4.94.15-.89,2.04-2.38,2.59-2.18,3.38,1.29,2.15,4.53,2.53,7.09l-.03.03Z"/>
      <path class="cls-1" d="M279.97,343c0-2.88,0-5.76.01-8.63,2.87.45,5.35,1.35,4.9,4.98-.35,2.83-2.66,3.25-4.91,3.65Z"/>
      <path class="cls-1" d="M247.78,181.08c3.21.88,4.95,2.93,5.06,6.3-3.35.06-6.7.11-10.04.17,1.66-2.16,3.32-4.31,4.98-6.47Z"/>
      <path class="cls-1" d="M191.79,268.35c1.25,1.87,2.72,3.2,3.02,4.75.31,1.64-1.48,2.11-2.68,1.33-1.38-.89-2.41-2.32-3.6-3.51.91-.71,1.81-1.43,3.26-2.57Z"/>
      <path class="cls-1" d="M194.47,330.95c.36,2.23.72,4.46,1.08,6.69-1.77-.09-3.54-.17-5.31-.26.13-2.99,1.15-5.38,4.23-6.43Z"/>
      <path class="cls-1" d="M190.27,259.41c.71,1.01,1.43,2.03,2.14,3.04-.36.24-.72.47-1.09.71-.36-1.24-.73-2.48-1.09-3.73,0,0,.03-.03.03-.03Z"/>
      <path class="cls-13" d="M245.95,49.3c4.49,1.73,11.98,1.26,12.71,9.56.31,3.51-1.61,7.33-5.96,5.61-5.8-2.3-14.38-1.47-15.87-9.61-.79-4.33,3.62-6.13,9.12-5.56Z"/>
      <path class="cls-14" d="M237.17,109.34c3.13-4.96,9.45-6.38,14.38-9.2,2.92-1.67,4.74,2.45,4.45,5.21-.56,5.48-2.76,10-9.45,9.95-3.9-.03-7.52-.58-9.38-5.96Z"/>
      <path class="cls-14" d="M240.92,130.84c7.75-3.23,14.96,5.17,22.32-.31-6.56,8.56-10.14,8.52-22.32.31Z"/>
      <path class="cls-14" d="M77.99,322.64c6.17.78,6.66,5.66,5.3,9.64-4.11,12.08-1.53,24.62-4.45,36.98-6.5-10.18-6.8-21.54-2.96-32.5,1.69-4.83,1.4-9.18,1.77-13.79l.33-.34Z"/>
      <path class="cls-14" d="M77.66,322.98c-.39-.49-.77-.97-1.16-1.46.49.38.99.75,1.49,1.13,0,0-.33.33-.33.33Z"/>
    </g>
  </g>
</svg>